PathFileType	4	(X/Y/Z)	Patient4_TMGait_0pt7_02_right_03.trc.trc
DataRate	CameraRate	NumFrames	NumMarkers	Units	OrigDataRate	OrigDataStartFrame	OrigNumFrames
86.419753086420	86.419753086420	4	33	mm	86.419753086420	124	       141
Frame#	Time	Sacral			L.Shoulder			Chest			R.Shoulder			Neck			R.ASIS			L.ASIS			R.Thigh.Superior			R.Thigh.Lateral			R.Thigh.Inferior			R.Patella			L.Thigh.Superior			L.Thigh.Lateral			L.Thigh.Inferior			L.Patella			L.Shank.Superior			L.Shank.Lateral			L.Shank.Inferior			R.Shank.Superior			R.Shank.Lateral			R.Shank.Inferior			R.Heel			R.Midfoot.Superior			R.Midfoot.Lateral			R.Toe			L.Heel			L.Midfoot.Lateral			L.Midfoot.Superior			L.Toe			L.Elbow			L.Wrist			R.Elbow			R.Wrist			
		X1	Y1	Z1	X2	Y2	Z2	X3	Y3	Z3	X4	Y4	Z4	X5	Y5	Z5	X6	Y6	Z6	X7	Y7	Z7	X8	Y8	Z8	X9	Y9	Z9	X10	Y10	Z10	X11	Y11	Z11	X12	Y12	Z12	X13	Y13	Z13	X14	Y14	Z14	X15	Y15	Z15	X16	Y16	Z16	X17	Y17	Z17	X18	Y18	Z18	X19	Y19	Z19	X20	Y20	Z20	X21	Y21	Z21	X22	Y22	Z22	X23	Y23	Z23	X24	Y24	Z24	X25	Y25	Z25	X26	Y26	Z26	X27	Y27	Z27	X28	Y28	Z28	X29	Y29	Z29	X30	Y30	Z30	X31	Y31	Z31	X32	Y32	Z32	X33	Y33	Z33	

124	3.863285714286	781.394453471469	994.729962419207	451.951691656084	989.857543248053	1409.942972441914	267.039507199184	1083.480433635811	1337.545394163014	433.324440223125	997.794597123564	1426.183195880936	599.960036699567	988.641947238270	1473.447288293905	418.601458247923	1001.186399087452	918.254140787388	575.801588226792	785.818939493470	747.062585929317	236.477974457635	1072.297584675897	751.281504971715	549.833620009008	1022.932240934591	626.365491852898	617.882875287189	1117.672206506376	594.349997130735	543.208249990910	1148.917001191080	512.732553089918	557.951723164059	991.294120529038	721.564474352236	322.509824487744	868.834504860912	633.793313127433	259.516825591848	923.985530958747	535.607902105948	321.136478848916	906.865964785679	468.204615630985	328.862263043970	869.525848700524	404.953671677255	320.407708152292	762.104562785666	306.036307966868	268.346005611095	795.986067985901	187.639375052136	339.631760648647	1137.755173222311	422.136364778982	566.510636965084	1084.726460242767	304.053139146818	620.414280637810	1162.429114023606	223.448306364138	572.263607055193	1078.669664138817	39.670433457685	534.966298593352	1238.727161652921	112.386709078645	580.178499892191	1159.838553423538	38.299691176559	610.996803313984	1362.785778467551	75.498863225552	611.607791881865	653.493066838867	38.797023837240	381.595893336201	728.648586326557	34.178737564440	302.267951725106	811.712650965497	94.924420666625	330.057150882695	940.866029873294	42.783379357242	304.210347957873	1028.939150645428	1082.112272904114	118.683389713510	1278.167526919793	1103.544665229434	159.155711706411	814.976907347313	1154.188863095718	740.377554513625	738.188162588780	906.412476721374	777.098746599869	
125	3.874857142857	783.532337282349	993.042324022863	454.307480946544	991.352063072570	1408.977979611070	270.154794519806	1084.731722135457	1336.882715418852	436.717980451108	998.146910412399	1425.072770624714	603.187684440606	989.534387778375	1472.418312532692	421.852026421502	1003.403508305201	917.040285830155	578.465019540617	759.762107157586	719.140154657532	230.550463618624	1075.055028644428	749.516271701426	552.778304850543	1023.217267377042	624.214750389081	618.400706017061	1118.704117110178	592.709807918742	544.659754163563	1148.232794546563	510.349943592463	557.805808731746	993.612200438322	720.131768950620	324.782290192071	871.070418062778	632.369825006898	261.750927555621	926.144234881181	533.857273042660	323.254667093009	908.715970665649	465.574041854464	330.633197531394	869.499791935080	402.767119490452	322.065975883141	759.764776824969	306.561455551547	269.688794701603	790.653932094227	187.057890449619	340.211533151069	1137.049167876232	419.432125445776	566.014807082558	1083.258419883682	301.666984708222	619.631416367179	1159.703290902363	220.672113191851	570.764997698252	1072.852504286925	39.569207926792	533.396397917435	1234.570051708708	108.999101484856	577.832316021843	1153.951142830829	37.416937615355	609.563978693459	1357.789900059114	69.577180296274	609.273795030411	645.391897331466	40.128641693346	381.243312165267	720.641885662206	34.607548915985	302.179679373987	804.245519404904	94.892777371876	329.926685193694	932.936922464025	42.145232361670	304.157780049662	1026.756251547444	1080.271735141375	121.981799686077	1274.694589162225	1108.970563782909	164.468831451622	814.005841085657	1153.521194075319	742.117595734069	736.441207346671	905.748780255504	778.071317339947	
126	3.886428571429	785.545542299728	991.754888595534	456.760630148251	993.004068899372	1408.303787620352	273.330322818946	1086.089919410456	1336.470935405712	440.204881969001	998.630536539230	1424.214918186538	606.512396743555	990.619293405017	1471.719724876687	425.194358599889	1005.579220169149	916.259039337194	581.222877405293	753.407578125510	710.342349232972	230.716466932938	1078.114726932779	748.473655662423	555.655938396665	1024.206897219304	622.935129618153	619.163124615084	1120.198859332821	591.773239295715	546.150916055224	1148.108029249711	508.495797579471	557.872072115959	996.309476105427	718.996286605407	327.210076339215	873.938523669663	630.935977544547	264.166973391865	929.354650350192	532.197501571493	325.449179636158	911.734400201227	462.866569216876	332.341914285157	870.367059011446	400.588147603447	323.732392949998	758.112784686431	307.462935688219	271.105544829545	785.817249498036	186.814788801657	340.736468035530	1136.542024037042	417.235557595222	565.722822273719	1081.824407165564	300.049650673672	619.529157769711	1156.327409955548	218.284493250956	569.597049489040	1065.532940084889	39.844330061863	532.384203940220	1229.098552886102	105.900746259335	576.001617061986	1146.640095137441	36.825425441190	608.640295020847	1351.424697635558	63.867788566933	607.277831124832	637.414430776615	42.382542041025	380.801468134009	712.695344859776	35.484587358298	302.048301246128	797.077986936363	94.991610973284	329.668521557012	924.949810789711	41.415259998110	304.110554178994	1024.035298473722	1078.534578142333	125.543208668167	1270.848796772279	1112.913406428269	169.741498265237	813.913951493702	1152.303928568665	743.807248842389	736.279982663510	904.286795933725	778.801920566169	
127	3.898000000000	787.399705366841	990.930217362388	459.275601554075	994.797442292234	1407.995916708525	276.555436977287	1087.540926539728	1336.340573050366	443.750009012429	999.272530946266	1423.654827729008	609.908953969744	991.906110136695	1471.399591660401	428.606923495034	1007.670575794142	915.969450946431	584.063526121315	768.674098687069	722.587849959195	237.540369197028	1081.284543323725	748.132344156194	558.417527201738	1025.765489357290	622.536148961859	620.256623545664	1121.931384475498	591.461077816074	547.698043292943	1148.340675521508	507.178702095899	558.266748044934	999.338777068461	718.228043714910	329.785769422788	877.480560171186	629.523976788680	266.712947291760	933.694749066073	530.685876967975	327.674491133355	916.003271238543	460.147101427940	333.911209307220	872.213941298948	398.485127791833	325.345692987644	757.251204378565	308.830693341773	272.553990281930	781.588959969392	187.023012032374	341.181058957000	1136.100662483173	415.577373466807	565.747312221184	1080.381414658268	299.148052794960	620.133745107981	1152.451099318437	216.351090235012	568.837385168397	1057.275252220712	40.315593041713	531.886841108729	1222.653347002808	103.290431421282	574.745965828847	1138.445427572504	36.468645682878	608.199461067143	1344.122926317588	58.865205815404	605.737164517102	629.656895055631	45.807162115495	380.281931057349	704.857232143558	36.987212578073	301.876768245473	790.295565693255	95.286708692634	329.277874045151	916.884953885506	40.586033362767	304.084150291512	1020.740754935818	1077.009523057679	129.379629742263	1266.717831636929	1115.345414334186	174.962740722384	814.752889544370	1150.578122772080	745.460310272324	737.745101432560	902.083700183660	779.286449741597	
